<?xml version="1.0" encoding="UTF-8" standalone="no"?>
<svg
   xmlns:dc="http://purl.org/dc/elements/1.1/"
   xmlns:cc="http://creativecommons.org/ns#"
   xmlns:rdf="http://www.w3.org/1999/02/22-rdf-syntax-ns#"
   xmlns:svg="http://www.w3.org/2000/svg"
   xmlns="http://www.w3.org/2000/svg"
   xmlns:xlink="http://www.w3.org/1999/xlink"
   id="SVGRoot"
   version="1.1"
   viewBox="0 0 100 100"
   height="100px"
   width="100px">
  <defs
     id="defs4963">
    <radialGradient
       xlink:href="#linearGradient8217-2"
       id="radialGradient8219"
       cx="63.671875"
       cy="41.40625"
       fx="63.671875"
       fy="41.40625"
       r="40.625"
       gradientTransform="matrix(0.67382539,0,0,0.97936055,-81.086635,23.355579)"
       gradientUnits="userSpaceOnUse" />
    <linearGradient
       id="linearGradient8217-2">
      <stop
         style="stop-color:#0041b5;stop-opacity:1;"
         offset="0"
         id="stop8213" />
      <stop
         style="stop-color:#0041b5;stop-opacity:0;"
         offset="1"
         id="stop8215" />
    </linearGradient>
    <radialGradient
       xlink:href="#Green"
       id="radialGradient8227"
       cx="134.375"
       cy="31.25"
       fx="134.375"
       fy="31.25"
       r="40.625"
       gradientTransform="matrix(0.77379556,0,0,0.81930404,-130.3648,50.089477)"
       gradientUnits="userSpaceOnUse" />
    <linearGradient
       id="Green">
      <stop
         style="stop-color:#00c300;stop-opacity:1;"
         offset="0"
         id="stop8221" />
      <stop
         style="stop-color:#00c300;stop-opacity:0;"
         offset="1"
         id="stop8223" />
    </linearGradient>
    <radialGradient
       r="40.625"
       fy="39.0625"
       fx="94.140625"
       cy="39.0625"
       cx="94.140625"
       gradientTransform="matrix(0.77670251,0,0,0.81766383,-109.58577,17.220906)"
       gradientUnits="userSpaceOnUse"
       id="radialGradient986"
       xlink:href="#linearGradient8233" />
    <linearGradient
       id="linearGradient8233">
      <stop
         style="stop-color:#f01c00;stop-opacity:1;"
         offset="0"
         id="stop8229" />
      <stop
         style="stop-color:#f01c00;stop-opacity:0;"
         offset="1"
         id="stop8231" />
    </linearGradient>
    <radialGradient
       xlink:href="#linearGradient8264"
       id="radialGradient8266"
       cx="200.78125"
       cy="46.484375"
       fx="200.78125"
       fy="46.484375"
       r="37.890625"
       gradientTransform="matrix(0.75001976,0,0,0.6628089,-179.86335,27.205807)"
       gradientUnits="userSpaceOnUse" />
    <linearGradient
       id="linearGradient8264">
      <stop
         style="stop-color:#f4f01e;stop-opacity:1;"
         offset="0"
         id="stop8260" />
      <stop
         style="stop-color:#f4f01e;stop-opacity:0;"
         offset="1"
         id="stop8262" />
    </linearGradient>
  </defs>
  <metadata
     id="metadata4966">
    <rdf:RDF>
      <cc:Work
         rdf:about="">
        <dc:format>image/svg+xml</dc:format>
        <dc:type
           rdf:resource="http://purl.org/dc/dcmitype/StillImage" />
        <dc:title></dc:title>
      </cc:Work>
    </rdf:RDF>
  </metadata>
  <g
     id="layer1">
    <g
       transform="matrix(1.9331815,0,0,1.9331815,-81.548221,-49.760225)"
       id="layer1-3"
       style="stroke-width:0.51728201">
      <g
         transform="matrix(0.85962186,0,0,0.92030494,-46.783709,-11.069477)"
         id="g1578"
         style="stroke-width:0.58157784">
        <g
           transform="matrix(0.82510156,0,0,0.82510156,33.31879,5.376253)"
           id="g1629"
           style="stroke-width:0.70485604">
          <g
             style="stroke-width:0.96529508"
             transform="matrix(0.73019744,0,0,0.73019744,49.792225,4.9987997)"
             id="g1665">
            <g
               style="stroke-width:0.87507284"
               transform="matrix(1.1031026,0,0,1.1031026,-31.060583,13.09972)"
               id="g1701">
              <g
                 id="g1741"
                 transform="matrix(0.334631,-0.07767182,0.1067591,0.43758414,65.21791,35.574827)"
                 style="fill:none;fill-opacity:1;stroke:#000000;stroke-width:18.94988632;stroke-miterlimit:4;stroke-dasharray:none;stroke-opacity:1">
                <g
                   style="stroke-width:0.99375588"
                   id="g1524"
                   transform="matrix(2.4904377,0.44205633,-0.60760175,1.904497,229.50833,13.048016)">
                  <path
                     style="opacity:1;vector-effect:none;fill:url(#radialGradient8219);fill-opacity:1;fill-rule:evenodd;stroke:none;stroke-width:0;stroke-linecap:butt;stroke-linejoin:miter;stroke-miterlimit:4;stroke-dasharray:none;stroke-dashoffset:0;stroke-opacity:0.94117647;paint-order:markers stroke fill"
                     d="m -10.808762,63.907226 a 27.374154,39.786518 0 0 1 -27.374154,39.786504 27.374154,39.786518 0 0 1 -27.374155,-39.786504 27.374154,39.786518 0 0 1 27.374155,-39.78652 27.374154,39.786518 0 0 1 27.374154,39.78652 z"
                     id="blue">
                    <title
                       id="title5937">blue</title>
                  </path>
                  <path
                     style="opacity:1;vector-effect:none;fill:url(#radialGradient8227);fill-opacity:1;fill-rule:evenodd;stroke:none;stroke-width:0;stroke-linecap:butt;stroke-linejoin:miter;stroke-miterlimit:4;stroke-dasharray:none;stroke-dashoffset:0;stroke-opacity:0.94117647;paint-order:markers stroke fill"
                     d="M 5.0494618,75.692724 A 31.435445,33.284222 0 0 1 -26.385992,108.97694 31.435445,33.284222 0 0 1 -57.821444,75.692724 31.435445,33.284222 0 0 1 -26.385992,42.408501 31.435445,33.284222 0 0 1 5.0494618,75.692724 Z"
                     id="green">
                    <title
                       id="title5941">green</title>
                  </path>
                  <path
                     style="opacity:1;vector-effect:none;fill:url(#radialGradient986);fill-opacity:1;fill-rule:evenodd;stroke:none;stroke-width:0.37559271;stroke-linecap:butt;stroke-linejoin:miter;stroke-miterlimit:4;stroke-dasharray:none;stroke-dashoffset:0;stroke-opacity:1;paint-order:markers stroke fill"
                     d="M -4.9129764,49.1609 A 31.553539,33.217594 0 0 1 -36.466516,82.378494 31.553539,33.217594 0 0 1 -68.020056,49.1609 31.553539,33.217594 0 0 1 -36.466516,15.943306 31.553539,33.217594 0 0 1 -4.9129764,49.1609 Z"
                     id="red">
                    <title
                       id="title5935">red</title>
                  </path>
                  <path
                     style="opacity:1;vector-effect:none;fill:url(#radialGradient8266);fill-opacity:1;fill-rule:evenodd;stroke:none;stroke-width:0;stroke-linecap:butt;stroke-linejoin:miter;stroke-miterlimit:4;stroke-dasharray:none;stroke-dashoffset:0;stroke-opacity:0.94117647;paint-order:markers stroke fill"
                     d="M -0.85472622,58.016066 A 28.418719,25.114243 0 0 1 -29.273442,83.130314 28.418719,25.114243 0 0 1 -57.692154,58.016066 28.418719,25.114243 0 0 1 -29.273442,32.901822 28.418719,25.114243 0 0 1 -0.85472622,58.016066 Z"
                     id="yellow">
                    <title
                       id="title5939">yellow</title>
                  </path>
                </g>
                <g
                   transform="matrix(0.61052989,-0.05053474,0.09622638,0.61693617,26.227548,33.384641)"
                   style="stroke-width:11.62532902;stroke-miterlimit:4;stroke-dasharray:none"
                   id="fingerprint">
                  <title
                     id="title5943">fingerprint</title>
                  <g
                     id="g1525"
                     style="fill:none;fill-opacity:1;stroke:#000000;stroke-width:11.62532902;stroke-miterlimit:4;stroke-dasharray:none;stroke-opacity:1">
                    <g
                       id="g1523"
                       style="fill:none;fill-opacity:1;stroke:#000000;stroke-width:11.62532902;stroke-miterlimit:4;stroke-dasharray:none;stroke-opacity:1">
                      <path
                         id="path1517"
                         stroke-miterlimit="10"
                         d="M 22.855,81.087 C 9.543,107.082 4.61,137.596 10.832,168.451"
                         style="fill:none;fill-opacity:1;stroke:#000000;stroke-width:11.62532902;stroke-linecap:round;stroke-miterlimit:4;stroke-dasharray:none;stroke-opacity:1" />
                      <path
                         id="path1519"
                         stroke-miterlimit="10"
                         d="M 200.875,21.835 C 175.332,9.297 145.604,4.775 115.554,10.834 81.418,17.716 52.961,37.021 33.936,63.091"
                         style="fill:none;fill-opacity:1;stroke:#000000;stroke-width:11.62532902;stroke-linecap:round;stroke-miterlimit:4;stroke-dasharray:none;stroke-opacity:1" />
                      <path
                         id="path1521"
                         stroke-miterlimit="10"
                         d="M 273.164,115.555 C 266.104,80.542 245.975,51.499 218.879,32.485"
                         style="fill:none;fill-opacity:1;stroke:#000000;stroke-width:11.62532902;stroke-linecap:round;stroke-miterlimit:4;stroke-dasharray:none;stroke-opacity:1" />
                    </g>
                  </g>
                  <g
                     id="g1533"
                     style="fill:none;fill-opacity:1;stroke:#000000;stroke-width:11.62532902;stroke-miterlimit:4;stroke-dasharray:none;stroke-opacity:1">
                    <g
                       id="g1531"
                       style="fill:none;fill-opacity:1;stroke:#000000;stroke-width:11.62532902;stroke-miterlimit:4;stroke-dasharray:none;stroke-opacity:1">
                      <path
                         id="path1527"
                         stroke-miterlimit="10"
                         d="m 275.877,144.695 c 0.184,-9.594 -0.666,-19.357 -2.641,-29.154"
                         style="fill:none;fill-opacity:1;stroke:#000000;stroke-width:11.62532902;stroke-linecap:round;stroke-miterlimit:4;stroke-dasharray:none;stroke-opacity:1" />
                      <path
                         id="path1529"
                         stroke-miterlimit="10"
                         d="m 10.904,168.438 c 0.388,1.921 0.814,3.824 1.279,5.709"
                         style="fill:none;fill-opacity:1;stroke:#000000;stroke-width:11.62532902;stroke-linecap:round;stroke-miterlimit:4;stroke-dasharray:none;stroke-opacity:1" />
                    </g>
                  </g>
                  <path
                     id="path1535"
                     stroke-miterlimit="10"
                     d="m 107.454,271.29 c 29.977,-34.119 44.249,-81.34 34.579,-129.294"
                     style="fill:none;fill-opacity:1;stroke:#000000;stroke-width:11.62532902;stroke-linecap:round;stroke-miterlimit:4;stroke-dasharray:none;stroke-opacity:1" />
                  <path
                     id="path1537"
                     stroke-miterlimit="10"
                     d="m 119.176,220.338 c -6.555,16.798 -16.443,32.131 -29.02,45.026"
                     style="fill:none;fill-opacity:1;stroke:#000000;stroke-width:11.62532902;stroke-linecap:round;stroke-miterlimit:4;stroke-dasharray:none;stroke-opacity:1" />
                  <path
                     id="path1539"
                     stroke-miterlimit="10"
                     d="m 126.187,274.896 c 29.051,-37.175 42.302,-86.333 32.245,-136.205 l 0.052,-0.017 c -1.836,-9.104 -10.703,-14.996 -19.807,-13.16 -9.103,1.836 -14.994,10.703 -13.159,19.808 l 0.119,-0.02 c 3.746,18.581 3.45,37.04 -0.284,54.465"
                     style="fill:none;fill-opacity:1;stroke:#000000;stroke-width:11.62532902;stroke-linecap:round;stroke-miterlimit:4;stroke-dasharray:none;stroke-opacity:1" />
                  <path
                     id="path1541"
                     stroke-miterlimit="10"
                     d="m 110.51,156.144 c 5.245,38.701 -9.215,76.082 -36.162,101.293"
                     style="fill:none;fill-opacity:1;stroke:#000000;stroke-width:11.62532902;stroke-linecap:round;stroke-miterlimit:4;stroke-dasharray:none;stroke-opacity:1" />
                  <path
                     id="path1543"
                     stroke-miterlimit="10"
                     d="m 178.494,171.434 c -0.033,-11.89 -1.227,-23.95 -3.666,-36.049 l 0.037,-0.014 c -3.659,-18.152 -21.34,-29.901 -39.492,-26.24 -13.559,2.734 -23.546,13.292 -26.203,26.027"
                     style="fill:none;fill-opacity:1;stroke:#000000;stroke-width:11.62532902;stroke-linecap:round;stroke-miterlimit:4;stroke-dasharray:none;stroke-opacity:1" />
                  <path
                     id="path1545"
                     stroke-miterlimit="10"
                     d="m 146.273,275.748 c 16.744,-24.469 27.606,-52.939 31.045,-83.098"
                     style="fill:none;fill-opacity:1;stroke:#000000;stroke-width:11.62532902;stroke-linecap:round;stroke-miterlimit:4;stroke-dasharray:none;stroke-opacity:1" />
                  <path
                     id="path1547"
                     stroke-miterlimit="10"
                     d="m 145.93,91.898 c -4.529,-0.353 -9.184,-0.093 -13.859,0.85 -27.201,5.485 -44.805,31.979 -39.32,59.182 l 0.094,-0.016 c 7.418,36.792 -6.293,72.938 -32.779,95.876"
                     style="fill:none;fill-opacity:1;stroke:#000000;stroke-width:11.62532902;stroke-linecap:round;stroke-miterlimit:4;stroke-dasharray:none;stroke-opacity:1" />
                  <path
                     id="path1549"
                     stroke-miterlimit="10"
                     d="m 167.608,273.324 c 24.108,-41.098 33.776,-90.867 23.617,-141.246 l 0.024,-0.01 C 188.226,117.08 178.825,105.005 166.442,98.101"
                     style="fill:none;fill-opacity:1;stroke:#000000;stroke-width:11.62532902;stroke-linecap:round;stroke-miterlimit:4;stroke-dasharray:none;stroke-opacity:1" />
                  <path
                     id="path1551"
                     stroke-miterlimit="10"
                     d="M 72.457,201.992 C 67.229,215.453 58.58,227.414 47.362,236.603"
                     style="fill:none;fill-opacity:1;stroke:#000000;stroke-width:11.62532902;stroke-linecap:round;stroke-miterlimit:4;stroke-dasharray:none;stroke-opacity:1" />
                  <path
                     id="path1553"
                     stroke-miterlimit="10"
                     d="m 209.084,207.06 c 4.162,-25.266 3.9,-51.697 -1.461,-78.287 l 0.01,-0.007 c -7.31,-36.25 -42.617,-59.709 -78.865,-52.4 -36.25,7.31 -59.71,42.618 -52.4,78.869 l 0.078,-0.016 c 1.736,8.61 2.084,17.178 1.197,25.47"
                     style="fill:none;fill-opacity:1;stroke:#000000;stroke-width:11.62532902;stroke-linecap:round;stroke-miterlimit:4;stroke-dasharray:none;stroke-opacity:1" />
                  <path
                     id="path1555"
                     stroke-miterlimit="10"
                     d="m 190.006,266.909 c 6.068,-12.456 10.967,-25.52 14.582,-39.021"
                     style="fill:none;fill-opacity:1;stroke:#000000;stroke-width:11.62532902;stroke-linecap:round;stroke-miterlimit:4;stroke-dasharray:none;stroke-opacity:1" />
                  <path
                     id="path1557"
                     stroke-miterlimit="10"
                     d="m 209.666,92.758 c 6.883,9.447 11.887,20.496 14.35,32.705 l 0.005,0.004 c 9.095,45.104 4.563,89.789 -10.744,129.806"
                     style="fill:none;fill-opacity:1;stroke:#000000;stroke-width:11.62532902;stroke-linecap:round;stroke-miterlimit:4;stroke-dasharray:none;stroke-opacity:1" />
                  <path
                     id="path1559"
                     stroke-miterlimit="10"
                     d="m 107.07,65.952 c 5.76,-2.64 11.913,-4.663 18.393,-5.969 25.609,-5.163 50.842,1.962 69.588,17.315"
                     style="fill:none;fill-opacity:1;stroke:#000000;stroke-width:11.62532902;stroke-linecap:round;stroke-miterlimit:4;stroke-dasharray:none;stroke-opacity:1" />
                  <path
                     id="path1561"
                     stroke-miterlimit="10"
                     d="m 36.275,224.05 c 18.902,-15.185 28.896,-40.118 23.771,-65.524 l -0.063,0.014 c -6.366,-31.567 5.94,-62.562 29.315,-81.544"
                     style="fill:none;fill-opacity:1;stroke:#000000;stroke-width:11.62532902;stroke-linecap:round;stroke-miterlimit:4;stroke-dasharray:none;stroke-opacity:1" />
                  <path
                     id="path1563"
                     stroke-miterlimit="10"
                     d="m 41.684,145.976 c 0.215,5.25 0.844,10.552 1.916,15.867 l 0.051,-0.013 c 3.752,18.607 -3.295,36.881 -16.821,48.343"
                     style="fill:none;fill-opacity:1;stroke:#000000;stroke-width:11.62532902;stroke-linecap:round;stroke-miterlimit:4;stroke-dasharray:none;stroke-opacity:1" />
                  <path
                     id="path1565"
                     stroke-miterlimit="10"
                     d="m 242.69,135.156 c -0.642,-4.326 -1.399,-8.658 -2.272,-12.994 l -0.02,-0.001 C 229.44,67.813 176.506,32.643 122.16,43.6 80.395,52.022 49.953,85.235 43.072,124.829"
                     style="fill:none;fill-opacity:1;stroke:#000000;stroke-width:11.62532902;stroke-linecap:round;stroke-miterlimit:4;stroke-dasharray:none;stroke-opacity:1" />
                  <path
                     id="path1567"
                     stroke-miterlimit="10"
                     d="m 236.983,236.258 c 6.826,-25.603 9.664,-52.564 7.931,-80.029"
                     style="fill:none;fill-opacity:1;stroke:#000000;stroke-width:11.62532902;stroke-linecap:round;stroke-miterlimit:4;stroke-dasharray:none;stroke-opacity:1" />
                  <path
                     id="path1569"
                     stroke-miterlimit="10"
                     d="M 157.688,25.931 C 145.096,24.23 132.013,24.565 118.858,27.218 55.461,40 14.432,101.75 27.215,165.146 l 0.039,-0.01 c 2.219,11 -1.225,21.823 -8.313,29.47"
                     style="fill:none;fill-opacity:1;stroke:#000000;stroke-width:11.62532902;stroke-linecap:round;stroke-miterlimit:4;stroke-dasharray:none;stroke-opacity:1" />
                  <path
                     id="path1571"
                     stroke-miterlimit="10"
                     d="m 260.104,204.896 c 3.479,-27.945 2.584,-56.916 -3.289,-86.041 l -0.033,0.002 C 248.089,75.745 216.751,42.979 177.653,30.444"
                     style="fill:none;fill-opacity:1;stroke:#000000;stroke-width:11.62532902;stroke-linecap:round;stroke-miterlimit:4;stroke-dasharray:none;stroke-opacity:1" />
                </g>
              </g>
            </g>
          </g>
        </g>
      </g>
    </g>
  </g>
</svg>
